<?xml version="1.0" encoding="UTF-8" standalone="no"?>
<svg
   width="256"
   height="256"
   viewBox="0 0 256 256"
   fill="none"
   stroke="currentColor"
   strokeWidth="3"
   strokeLinecap="round"
   strokeLinejoin="round"
   version="1.1"
   id="svg2"
   xmlns:xlink="http://www.w3.org/1999/xlink"
   xmlns="http://www.w3.org/2000/svg"
   xmlns:svg="http://www.w3.org/2000/svg">
  <defs
     id="defs2">
    <linearGradient
       id="swatch4">
      <stop
         style="stop-color:#ffffff;stop-opacity:1;"
         offset="0"
         id="stop4" />
    </linearGradient>
    <linearGradient
       id="swatch3">
      <stop
         style="stop-color:#000000;stop-opacity:1;"
         offset="0"
         id="stop3" />
    </linearGradient>
    <linearGradient
       id="swatch2">
      <stop
         style="stop-color:#000000;stop-opacity:1;"
         offset="0"
         id="stop2" />
    </linearGradient>
    <linearGradient
       xlink:href="#swatch4"
       id="linearGradient4"
       x1="-1.6931034"
       y1="126.95173"
       x2="256.58966"
       y2="126.95173"
       gradientUnits="userSpaceOnUse" />
  </defs>
  <rect
     style="fill:url(#linearGradient4);stroke:none;stroke-width:1.4;stroke-dasharray:none;stroke-opacity:1"
     id="rect4"
     width="259.20001"
     height="258.53796"
     x="-1.9862069"
     y="-0.66206902" />
  <path
     stroke="none"
     d="M 0,0 H 24 V 24 H 0 Z"
     fill="none"
     id="path1"
     style="display:inline" />
  <path
     d="m 138.6667,31.9997 a 10.6667,10.6667 0 0 1 10.6667,10.6667 v 48.373484 l 41.8988,-24.181408 a 10.6667,10.6667 0 0 1 14.57071,3.904012 l 10.6667,18.474724 A 10.6667,10.6667 0 0 1 212.5656,103.80792 L 170.67747,128 212.5656,152.20274 a 10.6667,10.6667 0 0 1 3.90401,14.57071 l -10.6667,18.47473 a 10.6667,10.6667 0 0 1 -14.57071,3.90401 l -41.8988,-24.20274 v 48.38415 a 10.6667,10.6667 0 0 1 -10.6667,10.6667 H 117.3333 A 10.6667,10.6667 0 0 1 106.6666,213.3336 V 164.94945 L 64.767802,189.14152 A 10.6667,10.6667 0 0 1 50.19709,185.23751 l -10.6667,-18.47472 a 10.6667,10.6667 0 0 1 3.904012,-14.57071 L 85.322533,128 43.434402,103.80792 A 10.6667,10.6667 0 0 1 39.53039,89.237212 L 50.19709,70.762488 A 10.6667,10.6667 0 0 1 64.767802,66.858476 L 106.6666,91.039884 V 42.6664 a 10.6667,10.6667 0 0 1 10.6667,-10.6667 z"
     id="path2"
     style="display:inline;fill:none;stroke:#319795;stroke-width:14.9334;stroke-dasharray:none;stroke-opacity:1" />
</svg>
